<svg width="14" height="14" viewBox="0 0 14 14" fill="none" xmlns="http://www.w3.org/2000/svg">
<path d="M13.9481 6.8343C13.8379 6.67387 11.1884 2.91656 6.99997 2.91656C3.40598 2.91656 0.203434 6.6523 0.0686817 6.81155C-0.0228939 6.92005 -0.0228939 7.07931 0.0686817 7.18838C0.203434 7.34763 3.40598 11.0834 6.99997 11.0834C10.5939 11.0834 13.7965 7.34763 13.9312 7.18838C14.0158 7.08806 14.0234 6.9428 13.9481 6.8343ZM6.99997 10.5C4.11885 10.5 1.37945 7.75249 0.683543 6.99998C1.3783 6.24689 4.11477 3.49993 6.99997 3.49993C10.3711 3.49993 12.7506 6.24339 13.3316 6.98423C12.6607 7.71282 9.90559 10.5 6.99997 10.5Z" fill="#8F8F8F"/>
<path d="M6.99987 4.66663C5.71302 4.66663 4.6665 5.71314 4.6665 6.99999C4.6665 8.28684 5.71302 9.33336 6.99987 9.33336C8.28672 9.33336 9.33324 8.28684 9.33324 6.99999C9.33324 5.71314 8.28672 4.66663 6.99987 4.66663ZM6.99987 8.75005C6.03503 8.75005 5.24984 7.96486 5.24984 7.00002C5.24984 6.03518 6.03503 5.24999 6.99987 5.24999C7.96471 5.24999 8.7499 6.03518 8.7499 7.00002C8.7499 7.96486 7.96471 8.75005 6.99987 8.75005Z" fill="#8F8F8F"/>
</svg>
