<svg width="26" height="24" viewBox="0 0 26 24" fill="none" xmlns="http://www.w3.org/2000/svg">
<path d="M5.20302 14.1506L12.4709 20.5098C12.6896 20.7011 12.7989 20.7968 12.9248 20.8242C12.9949 20.8394 13.0675 20.8394 13.1376 20.8242C13.2635 20.7968 13.3728 20.7011 13.5915 20.5098L20.8594 14.1506C23.074 12.213 23.3383 8.8624 21.4549 6.60147L21.3306 6.45216C19.1783 3.86843 15.0865 4.32244 13.553 7.31512C13.3351 7.74033 12.7273 7.74033 12.5095 7.31512C10.976 4.32244 6.88409 3.86843 4.73185 6.45216L4.60748 6.60147C2.72414 8.8624 2.98846 12.213 5.20302 14.1506Z" stroke="white"/>
</svg>
