<svg width="46" height="30" viewBox="0 0 46 30" fill="none" xmlns="http://www.w3.org/2000/svg">
<path fill-rule="evenodd" clip-rule="evenodd" d="M16.9095 13.4711C17.4572 13.4711 17.9031 13.021 17.9031 12.4688V6.61103C17.9031 6.05794 17.4572 5.60779 16.9095 5.60779C16.3618 5.60779 15.916 6.05794 15.916 6.61103V12.4688C15.916 13.021 16.3618 13.4711 16.9095 13.4711Z" fill="#6B6C80"/>
<path fill-rule="evenodd" clip-rule="evenodd" d="M28.0102 13.4711C28.5579 13.4711 29.0037 13.021 29.0037 12.4688V6.61103C29.0037 6.05794 28.5579 5.60779 28.0102 5.60779C27.4625 5.60779 27.0166 6.05794 27.0166 6.61103V12.4688C27.0166 13.021 27.4625 13.4711 28.0102 13.4711Z" fill="#6B6C80"/>
<path fill-rule="evenodd" clip-rule="evenodd" d="M42.7617 8.0615V4.26882C42.7617 1.91414 40.866 0 38.5349 0H6.9615C4.63148 0 2.73488 1.91414 2.73488 4.26882V8.0615C1.14024 8.6723 0 10.2267 0 12.0495V24.853V26.1073H2.48625H6.86243V28.8497C6.86243 29.4835 7.37398 30 8.00077 30C8.62853 30 9.13817 29.4835 9.13817 28.8497V26.1073H36.3584V28.8497C36.3584 29.4835 36.8679 30 37.4967 30C38.1234 30 38.634 29.4835 38.634 28.8497V26.1073H43.0112H45.4965V24.853V12.0495C45.4965 10.2267 44.3572 8.6723 42.7617 8.0615ZM5.22208 4.26882C5.22208 3.29828 6.00225 2.5105 6.9615 2.5105H38.5349C39.4943 2.5105 40.2753 3.29828 40.2753 4.26882V7.79603C38.0606 7.92588 36.2992 9.78139 36.2992 12.0495V16.5684H9.19913V12.0495C9.19913 9.78139 7.4359 7.92588 5.22208 7.79603V4.26882ZM43.0112 23.5968H2.48625V12.0495C2.48625 11.0818 3.26737 10.2921 4.22662 10.2921H4.97155C5.93175 10.2921 6.71192 11.0818 6.71192 12.0495V16.5684V17.8236V19.0991H9.19913V19.0789H36.2992V19.0991H38.7846V17.8236V16.5684V12.0495C38.7846 11.0818 39.5657 10.2921 40.5239 10.2921H41.2708C42.2291 10.2921 43.0112 11.0818 43.0112 12.0495V23.5968Z" fill="#6B6C80"/>
</svg>
