<svg width="23" height="32" viewBox="0 0 23 32" fill="none" xmlns="http://www.w3.org/2000/svg">
<path fill-rule="evenodd" clip-rule="evenodd" d="M3.73259 16.5735C2.74838 16.5735 1.94695 17.3006 1.94695 18.1951C1.94695 19.0895 2.74838 19.8175 3.73259 19.8175H18.8749C19.8617 19.8175 20.6614 19.0895 20.6614 18.1951C20.6614 17.3006 19.8617 16.5735 18.8749 16.5735H3.73259ZM18.8749 21.7738H3.73259C1.67495 21.7738 0 20.1686 0 18.1951C0 16.2216 1.67495 14.6155 3.73259 14.6155H18.8749C20.9343 14.6155 22.6092 16.2216 22.6092 18.1951C22.6092 20.1686 20.9343 21.7738 18.8749 21.7738Z" fill="#6B6C80"/>
<path fill-rule="evenodd" clip-rule="evenodd" d="M2.99613 32C2.91574 32 2.83534 31.9883 2.75411 31.9646C2.25349 31.8183 1.95345 31.2542 2.08689 30.7038L4.3173 21.5171C4.45074 20.9666 4.96629 20.6405 5.4669 20.7858C5.96918 20.932 6.26756 21.4962 6.13411 22.0467L3.90454 31.2334C3.79264 31.6948 3.41221 32 2.99613 32Z" fill="#6B6C80"/>
<path fill-rule="evenodd" clip-rule="evenodd" d="M20.6397 32C20.2245 32 19.844 31.6948 19.7321 31.2334L17.5025 22.0467C17.3691 21.4962 17.6675 20.932 18.1689 20.7858C18.6704 20.6405 19.1859 20.9666 19.3185 21.5171L21.5498 30.7038C21.6832 31.2542 21.3824 31.8183 20.8825 31.9646C20.8013 31.9883 20.7201 32 20.6397 32Z" fill="#6B6C80"/>
<path fill-rule="evenodd" clip-rule="evenodd" d="M5.68752 14.5631H17.2217L19.3207 1.97327H3.5876L5.68752 14.5631ZM18.0421 16.5363H4.86623C4.39263 16.5363 3.9884 16.1886 3.90876 15.714L1.47999 1.15098C1.43202 0.865005 1.51167 0.572075 1.6958 0.349553C1.88079 0.128768 2.15141 0.00012207 2.43744 0.00012207H20.4708C20.7569 0.00012207 21.0275 0.128768 21.2125 0.349553C21.3975 0.572075 21.4763 0.865005 21.4283 1.15098L18.9996 15.714C18.9207 16.1886 18.5156 16.5363 18.0421 16.5363Z" fill="#6B6C80"/>
<path fill-rule="evenodd" clip-rule="evenodd" d="M8.0905 16.5361C7.62599 16.5361 7.22313 16.1693 7.16558 15.6694L5.47524 1.10642C5.41275 0.56663 5.77697 0.0746441 6.28752 0.00771362C6.7989 -0.0600861 7.26424 0.326723 7.32673 0.866513L9.01707 15.4295C9.07955 15.9702 8.71616 16.4622 8.20561 16.5282C8.16696 16.5334 8.12832 16.5361 8.0905 16.5361Z" fill="#6B6C80"/>
<path fill-rule="evenodd" clip-rule="evenodd" d="M10.2769 14.6619V1.27419C10.2769 0.735763 10.7371 0.298828 11.3041 0.298828C11.872 0.298828 12.3322 0.735763 12.3322 1.27419V14.6619C12.3322 15.2003 11.872 15.6381 11.3041 15.6381C10.7371 15.6381 10.2769 15.2003 10.2769 14.6619Z" fill="#6B6C80"/>
<path fill-rule="evenodd" clip-rule="evenodd" d="M14.806 16.5361C14.7681 16.5361 14.7295 16.5334 14.6909 16.5282C14.1795 16.4622 13.8161 15.9702 13.8786 15.4295L15.5697 0.866513C15.6322 0.326723 16.0935 -0.0600861 16.6081 0.00771362C17.1195 0.0746441 17.4837 0.56663 17.4212 1.10642L15.7301 15.6694C15.6725 16.1693 15.2697 16.5361 14.806 16.5361Z" fill="#6B6C80"/>
</svg>
