<svg width="9" height="16" viewBox="0 0 9 16" fill="none" xmlns="http://www.w3.org/2000/svg">
<path fill-rule="evenodd" clip-rule="evenodd" d="M7.936 3.456C7.936 3.2 8.192 2.944 8.448 2.944C8.832 2.944 8.96 3.2 8.96 3.456V10.88C8.96 10.88 8.96 11.008 8.832 11.008H8.064L7.936 10.88V3.456ZM0 6.528C0 6.272 0.256 6.016 0.512 6.016C0.768 6.016 1.024 6.272 1.024 6.528V13.952L0.896 14.08H0.128C0 14.08 0 13.952 0 13.952V6.528H0ZM3.968 0.512C3.968 0.256 4.224 0 4.48 0C4.736 0 4.992 0.256 4.992 0.512V15.872L4.864 16H4.096L3.968 15.872V0.512Z" fill="#6B6C80"/>
</svg>
