<svg width="18" height="16" viewBox="0 0 18 16" fill="none" xmlns="http://www.w3.org/2000/svg">
<path d="M12.2888 12.1139C12.0328 11.985 12.0328 11.5984 12.1608 11.3407C12.4168 11.2118 12.6729 11.2118 12.9289 11.3407L17.2812 15.078C17.4092 15.3357 17.5372 15.5934 17.2812 15.8512C17.1532 15.9801 16.7691 16.1089 16.6411 15.8512L12.2888 12.1139ZM11.2648 5.67034C11.2648 8.76326 8.70459 11.3407 5.63238 11.3407C2.56017 11.3407 0 8.76326 0 5.67034C0 2.57743 2.56017 0 5.63238 0C8.70459 0 11.2648 2.57743 11.2648 5.67034ZM10.2407 5.67034C10.2407 3.09292 8.19256 1.03097 5.63238 1.03097C3.07221 1.03097 1.02407 3.09292 1.02407 5.67034C1.02407 8.24778 3.07221 10.3097 5.63238 10.3097C8.19256 10.3097 10.2407 8.24778 10.2407 5.67034Z" fill="#6B6C80"/>
</svg>
