<svg width="39" height="20" viewBox="0 0 39 20" fill="none" xmlns="http://www.w3.org/2000/svg">
<path fill-rule="evenodd" clip-rule="evenodd" d="M37.2291 20C37.7848 20 38.2353 19.5523 38.2353 19V2.5C38.2353 1.12125 37.0921 0 35.6863 0H2.54902C1.14324 0 0 1.12125 0 2.5V19C0 19.5523 0.450487 20 1.00619 20H1.54282C2.09853 20 2.54902 19.5523 2.54902 19V7.5H35.6863V19C35.6863 19.5523 36.1368 20 36.6925 20H37.2291ZM35.6863 5V3.5C35.6863 2.94772 35.2358 2.5 34.6801 2.5H3.55521C2.99951 2.5 2.54902 2.94772 2.54902 3.5V5H35.6863Z" fill="#6B6C80"/>
</svg>
