<svg width="45" height="30" viewBox="0 0 45 30" fill="none" xmlns="http://www.w3.org/2000/svg">
<path fill-rule="evenodd" clip-rule="evenodd" d="M44.5161 10.9649V7.86183L41.8687 0H2.64748L0 7.86183V10.9649H2.29973V28.6535C2.30071 29.3972 2.89975 30 3.64101 30C4.38129 30 4.9813 29.3972 4.9813 28.6535C4.9813 28.6467 4.97936 28.6398 4.97936 28.6358V10.9649H8.90186V21.9327C8.90186 22.6754 9.50191 23.2782 10.2412 23.2782C10.9824 23.2782 11.5825 22.6754 11.5825 21.9327C11.5825 21.9268 11.5805 21.9209 11.5805 21.916V10.9649H32.9356V21.9131V21.9151V21.9327H32.9376C32.9473 22.6676 33.5415 23.2606 34.276 23.2606C35.0104 23.2606 35.6065 22.6676 35.6153 21.9327V21.9268C35.6153 21.9229 35.6162 21.918 35.6162 21.9131C35.6162 21.9112 35.6153 21.9062 35.6153 21.9024V10.9649H39.5378V28.6525V28.6535C39.5378 29.3972 40.1378 30 40.878 30C41.6173 30 42.2184 29.3972 42.2184 28.6535C42.2184 28.6486 42.2173 28.6437 42.2173 28.6398V10.9649H44.5161ZM2.74975 8.27282L4.37447 2.69204H40.1416L41.7673 8.27282H2.74975Z" fill="#6B6C80"/>
</svg>
