<svg width="41" height="30" viewBox="0 0 41 30" fill="none" xmlns="http://www.w3.org/2000/svg">
<path fill-rule="evenodd" clip-rule="evenodd" d="M3.87577 27.8466C4.58737 29.1747 5.96198 29.9996 7.46414 29.9996C7.46541 29.9996 7.46667 29.9996 7.46752 30H34.054C34.763 29.9983 35.4628 29.8106 36.0781 29.4574C36.6935 29.1039 37.2095 28.5935 37.5701 27.981L37.9675 27.3032C38.8324 25.8298 39.514 24.252 39.9933 22.6132C40.4659 20.9983 40.7413 19.3256 40.8118 17.6428C40.8823 15.9595 40.748 14.2698 40.4127 12.6205C40.0727 10.9474 39.5259 9.31754 38.7872 7.77627C37.6719 5.44445 35.9295 3.48354 33.7482 2.10589C31.567 0.728239 29.0517 0 26.4748 0H23.5H23.4899C20.8124 0 18.2157 0.782079 15.9804 2.26145C13.7422 3.74295 12.0019 5.834 10.9474 8.30825L10.3738 9.65154L5.94383 10.8372C5.34246 10.9982 4.75967 11.2302 4.21193 11.526C3.26046 12.0402 2.43781 12.726 1.76676 13.5645C1.11894 14.3742 0.63877 15.2914 0.339782 16.291C0.0407843 17.2905 -0.0614158 18.3214 0.0352976 19.3557C0.135807 20.4265 0.446205 21.4535 0.958465 22.4085L3.87577 27.8466ZM12.2054 8.84956C14.1409 4.30715 18.5696 1.37383 23.4907 1.37383H23.5H26.4748C31.1722 1.37383 35.5207 4.12021 37.5533 8.37099C40.351 14.2089 40.0647 21.0258 36.788 26.6068L36.3906 27.2846C35.9045 28.1099 35.0093 28.6241 34.054 28.6262H7.46752H7.46541C6.46706 28.6262 5.55361 28.0781 5.08104 27.1955L2.16373 21.7575C1.91922 21.3014 1.72791 20.8165 1.59488 20.3162C0.652283 16.7674 2.7613 13.1105 6.29687 12.1644L11.0482 10.8927C11.2526 10.838 11.4178 10.6948 11.501 10.4998L12.2054 8.84956ZM20.161 15.4942C22.0382 16.0742 23.9862 16.3683 25.9504 16.3683H25.9534C26.8534 16.3671 27.7296 16.1076 28.4864 15.6185C29.2431 15.1293 29.8407 14.4363 30.2145 13.6139L32.5448 8.46833L32.5469 8.46366L31.3057 7.89735L31.301 7.89523L28.9687 13.0459C28.4314 14.2281 27.2478 14.9932 25.9534 14.995C25.3149 14.9945 24.6695 14.9606 24.0344 14.8932C24.4825 13.5334 25.1438 12.2638 26.0011 11.1193L28.3956 7.91473L28.399 7.91048L27.3081 7.08941L27.3039 7.08644L24.9065 10.2952C24.1712 11.2783 23.5618 12.3528 23.0951 13.4893C22.629 12.3524 22.0196 11.2783 21.2839 10.2952L18.8894 7.09068L18.8865 7.08644L17.7957 7.90752L17.7914 7.9109L20.1888 11.1197C20.9765 12.1719 21.6006 13.3329 22.0445 14.5711C21.5486 14.4621 21.0508 14.3311 20.5638 14.1815C18.5241 13.5558 16.4088 13.2659 14.2766 13.3198C12.1443 13.3736 10.0462 13.7695 8.04029 14.4973L6.56431 15.0361L6.55925 15.0378L7.02506 16.3239L7.02674 16.3289L8.50778 15.7885C12.2338 14.4366 16.3725 14.3324 20.161 15.4942Z" fill="#6B6C80"/>
</svg>
