<svg width="34" height="30" viewBox="0 0 34 30" fill="none" xmlns="http://www.w3.org/2000/svg">
<path fill-rule="evenodd" clip-rule="evenodd" d="M12.9935 13.8633C13.5412 13.8633 13.9871 13.4132 13.9871 12.861V7.00324C13.9871 6.45015 13.5412 6 12.9935 6C12.4458 6 12 6.45015 12 7.00324V12.861C12 13.4132 12.4458 13.8633 12.9935 13.8633Z" fill="#6B6C80"/>
<path fill-rule="evenodd" clip-rule="evenodd" d="M19.0942 13.8633C19.6419 13.8633 20.0877 13.4132 20.0877 12.861V7.00324C20.0877 6.45015 19.6419 6 19.0942 6C18.5465 6 18.1006 6.45015 18.1006 7.00324V12.861C18.1006 13.4132 18.5465 13.8633 19.0942 13.8633Z" fill="#6B6C80"/>
<path fill-rule="evenodd" clip-rule="evenodd" d="M29.826 11.1111V3.33333C29.826 1.49556 28.3391 0 26.512 0H6.62801C4.80088 0 3.314 1.49556 3.314 3.33333V11.1111H2.20933C0.990887 11.1111 0 12.1078 0 13.3333V27.7778H5.52334V29C5.52334 29.5523 5.96845 30 6.51754 30H6.73847C7.28755 30 7.73267 29.5523 7.73267 29V27.7778H25.4074V29C25.4074 29.5523 25.8525 30 26.4016 30H26.6225C27.1716 30 27.6167 29.5523 27.6167 29V27.7778H33.14V13.3333C33.14 12.1078 32.1492 11.1111 30.9307 11.1111H29.826ZM5.52334 11.1111H6.62801C7.84645 11.1111 8.83734 12.1078 8.83734 13.3333V18.8889H24.3026V13.3333C24.3026 12.1078 25.2936 11.1111 26.512 11.1111H27.6167V3.33333C27.6167 2.72111 27.1207 2.22222 26.512 2.22222H6.62801C6.01934 2.22222 5.52334 2.72111 5.52334 3.33333V11.1111ZM30.9307 25.5556H2.20933V14.3333C2.20933 13.7811 2.65446 13.3333 3.20353 13.3333H5.63381C6.18288 13.3333 6.62801 13.7811 6.62801 14.3333V21.1111H26.512V14.3333C26.512 13.7811 26.9571 13.3333 27.5062 13.3333H29.9365C30.4856 13.3333 30.9307 13.7811 30.9307 14.3333V25.5556Z" fill="#6B6C80"/>
</svg>
