<svg width="19" height="16" viewBox="0 0 19 16" fill="none" xmlns="http://www.w3.org/2000/svg">
<path d="M16.678 11.7288C16.8814 11.7288 17.0169 11.9322 17.0169 12.1356C17.0169 12.339 16.8814 12.4746 16.678 12.4746H7.45763C6.71186 12.4746 5.9661 12.2034 5.35593 11.7966C4.74576 11.322 4.33898 10.7119 4.20339 9.9661L2.44068 0.745763H0.40678C0.20339 0.745763 0 0.610169 0 0.40678C0 0.20339 0.20339 0 0.40678 0H3.11864L3.59322 2.57627H18.3051L17.2881 7.45763C17.1525 8.40678 16.6102 9.15254 16 9.76271C15.322 10.3729 14.4407 10.7119 13.5593 10.7797L5.8983 11.2542C6.37288 11.5932 6.91525 11.7288 7.45763 11.7288H16.678ZM16 14.7119C16 15.4576 15.4576 16 14.7119 16C14.0339 16 13.4237 15.4576 13.4237 14.7119C13.4237 14.0339 14.0339 13.4237 14.7119 13.4237C15.4576 13.4237 16 14.0339 16 14.7119ZM15.1864 14.7119C15.1864 14.5085 14.9831 14.3051 14.7119 14.3051C14.5085 14.3051 14.3051 14.5085 14.3051 14.7119C14.3051 14.9831 14.5085 15.1864 14.7119 15.1864C14.9831 15.1864 15.1864 14.9831 15.1864 14.7119ZM8.20339 14.7119C8.20339 15.4576 7.59322 16 6.91525 16C6.16949 16 5.62712 15.4576 5.62712 14.7119C5.62712 14.0339 6.16949 13.4237 6.91525 13.4237C7.59322 13.4237 8.20339 14.0339 8.20339 14.7119ZM7.32203 14.7119C7.32203 14.5085 7.11864 14.3051 6.91525 14.3051C6.64407 14.3051 6.44068 14.5085 6.44068 14.7119C6.44068 14.9831 6.64407 15.1864 6.91525 15.1864C7.11864 15.1864 7.32203 14.9831 7.32203 14.7119ZM3.72881 3.38983L4.94915 9.83051C4.94915 10.0339 5.08475 10.2373 5.15254 10.4407L13.4915 9.89831C14.2373 9.89831 14.8475 9.55932 15.3898 9.08475C15.9322 8.67797 16.339 8 16.4746 7.25424L17.2203 3.38983H3.72881Z" fill="#6B6C80"/>
</svg>
