<svg width="18" height="16" viewBox="0 0 18 16" fill="none" xmlns="http://www.w3.org/2000/svg">
<path d="M13.2305 0C17.5288 0 19.42 5.34771 16.5832 8.36658L9.2761 15.8706C9.10416 16.0431 8.84627 16.0431 8.67434 15.8706C6.18134 13.4555 3.7743 10.8679 1.36727 8.36658C-1.55556 5.26146 0.50761 0 4.71992 0C6.78309 0 7.72871 1.03504 8.93223 2.41509C10.2217 1.03504 11.2533 0 13.2305 0V0ZM9.61996 3.01887C9.2761 3.36388 8.67434 3.36388 8.33047 3.01887C7.21292 1.89757 6.43923 0.862534 4.71992 0.862534C1.2813 0.862534 -0.352046 5.26146 2.05499 7.7628L8.93223 14.9218L15.8954 7.7628C18.3025 5.26146 16.6691 0.862534 13.2305 0.862534C11.5112 0.862534 10.7375 1.89757 9.61996 3.01887Z" fill="#6B6C80"/>
</svg>
