<svg width="18" height="16" viewBox="0 0 18 16" fill="none" xmlns="http://www.w3.org/2000/svg">
<path d="M16.1353 16V13.9695C16.1353 12.9949 15.7258 12.1015 15.0706 11.533C14.4153 10.8832 13.5963 10.4772 12.6134 10.4772H4.50479C3.52192 10.4772 2.70287 10.8832 2.04763 11.533C1.39239 12.1015 0.982863 12.9949 0.982863 13.9695V16H0V13.9695C0 12.7513 0.491431 11.6142 1.31048 10.802C2.12954 9.98985 3.27621 9.50254 4.50479 9.50254H12.6134C13.842 9.50254 14.9887 9.98985 15.8077 10.802C16.6268 11.6142 17.1182 12.7513 17.1182 13.9695V16H16.1353ZM12.6134 3.9797C12.6134 6.17259 10.8115 7.95939 8.51814 7.95939C6.3067 7.95939 4.50479 6.17259 4.50479 3.9797C4.50479 1.7868 6.3067 0 8.51814 0C10.8115 0 12.6134 1.7868 12.6134 3.9797ZM11.5486 3.9797C11.5486 2.35533 10.2382 0.974619 8.51814 0.974619C6.88004 0.974619 5.56956 2.35533 5.56956 3.9797C5.56956 5.68528 6.88004 6.98477 8.51814 6.98477C10.2382 6.98477 11.5486 5.68528 11.5486 3.9797Z" fill="#6B6C80"/>
</svg>
